<?xml version="1.0" encoding="UTF-8"?>
<!DOCTYPE svg PUBLIC "-//W3C//DTD SVG 1.1//EN" "http://www.w3.org/Graphics/SVG/1.1/DTD/svg11.dtd">
<svg xmlns="http://www.w3.org/2000/svg" version="1.1" width="512px" height="512px" style="shape-rendering:geometricPrecision; text-rendering:geometricPrecision; image-rendering:optimizeQuality; fill-rule:evenodd; clip-rule:evenodd" xmlns:xlink="http://www.w3.org/1999/xlink">
<g><path style="opacity:0.995" fill="#fe5245" d="M 233.5,-0.5 C 240.833,-0.5 248.167,-0.5 255.5,-0.5C 255.167,70.3353 255.501,141.002 256.5,211.5C 256.158,212.338 255.492,212.672 254.5,212.5C 226.854,184.188 198.854,156.188 170.5,128.5C 156.167,142.167 142.167,156.167 128.5,170.5C 156.5,198.833 184.5,227.167 212.5,255.5C 184.847,283.653 157.014,311.653 129,339.5C 128.333,340.167 128.333,340.833 129,341.5C 142.681,355.347 156.514,369.014 170.5,382.5C 198.854,354.812 226.854,326.812 254.5,298.5C 255.492,298.328 256.158,298.662 256.5,299.5C 255.501,369.998 255.167,440.665 255.5,511.5C 248.167,511.5 240.833,511.5 233.5,511.5C 135.22,499.033 64.3865,448.366 21,359.5C 9.44633,333.197 2.27966,305.864 -0.5,277.5C -0.5,262.833 -0.5,248.167 -0.5,233.5C 11.967,135.22 62.6336,64.3865 151.5,21C 177.803,9.44633 205.136,2.27966 233.5,-0.5 Z"/></g>
<g><path style="opacity:1" fill="#ed2626" d="M 255.5,-0.5 C 262.833,-0.5 270.167,-0.5 277.5,-0.5C 375.78,11.967 446.613,62.6336 490,151.5C 501.554,177.803 508.72,205.136 511.5,233.5C 511.5,248.167 511.5,262.833 511.5,277.5C 499.033,375.78 448.366,446.613 359.5,490C 333.197,501.554 305.864,508.72 277.5,511.5C 270.167,511.5 262.833,511.5 255.5,511.5C 255.167,440.665 255.501,369.998 256.5,299.5C 284.479,327.146 312.479,354.812 340.5,382.5C 354.833,368.833 368.833,354.833 382.5,340.5C 354.5,312.167 326.5,283.833 298.5,255.5C 326.153,227.347 353.986,199.347 382,171.5C 382.667,170.833 382.667,170.167 382,169.5C 368.319,155.653 354.486,141.986 340.5,128.5C 312.479,156.188 284.479,183.854 256.5,211.5C 255.501,141.002 255.167,70.3353 255.5,-0.5 Z"/></g>
<g><path style="opacity:1" fill="#e7e5e5" d="M 254.5,212.5 C 255.833,241.167 255.833,269.833 254.5,298.5C 226.854,326.812 198.854,354.812 170.5,382.5C 156.514,369.014 142.681,355.347 129,341.5C 128.333,340.833 128.333,340.167 129,339.5C 157.014,311.653 184.847,283.653 212.5,255.5C 184.5,227.167 156.5,198.833 128.5,170.5C 142.167,156.167 156.167,142.167 170.5,128.5C 198.854,156.188 226.854,184.188 254.5,212.5 Z"/></g>
<g><path style="opacity:1" fill="#d3d2d7" d="M 256.5,299.5 C 256.158,298.662 255.492,298.328 254.5,298.5C 255.833,269.833 255.833,241.167 254.5,212.5C 255.492,212.672 256.158,212.338 256.5,211.5C 284.479,183.854 312.479,156.188 340.5,128.5C 354.486,141.986 368.319,155.653 382,169.5C 382.667,170.167 382.667,170.833 382,171.5C 353.986,199.347 326.153,227.347 298.5,255.5C 326.5,283.833 354.5,312.167 382.5,340.5C 368.833,354.833 354.833,368.833 340.5,382.5C 312.479,354.812 284.479,327.146 256.5,299.5 Z"/></g>
</svg>
