<!DOCTYPE svg PUBLIC "-//W3C//DTD SVG 1.1//EN" "http://www.w3.org/Graphics/SVG/1.1/DTD/svg11.dtd">
<!-- Uploaded to: SVG Repo, www.svgrepo.com, Transformed by: SVG Repo Mixer Tools -->
<svg height="800px" width="800px" version="1.1" id="Layer_1" xmlns="http://www.w3.org/2000/svg" xmlns:xlink="http://www.w3.org/1999/xlink" viewBox="0 0 496 496" xml:space="preserve" fill="#000000">
<g id="SVGRepo_bgCarrier" stroke-width="0"/>
<g id="SVGRepo_tracerCarrier" stroke-linecap="round" stroke-linejoin="round"/>
<g id="SVGRepo_iconCarrier"> <polygon style="fill:#4C5254;" points="496,168.8 248,326.4 0,168.8 248,7.2 "/> <polyline style="fill:#2F423F;" points="248,7.2 496,168.8 248,326.4 "/> <path style="fill:#EAEAEA;" d="M105.6,56.8c-11.2,0-25.6,12.8-25.6,24v388.8c0,11.2,14.4,19.2,25.6,19.2h284.8 c11.2,0,17.6-8,17.6-19.2V144l-88-87.2H105.6z"/> <path style="fill:#D6D6D6;" d="M408,472.8V144l-88-87.2H105.6c-11.2,0-25.6,12.8-25.6,24"/> <polygon style="fill:#A8A8A8;" points="408,215.2 408,144.8 364.8,101.6 329.6,138.4 "/> <path style="fill:#FFFFFF;" d="M320,123.2V56.8l88,88h-67.2C328.8,144.8,320,134.4,320,123.2z"/> <g> <path style="fill:#A8A8A8;" d="M272.8,136.8c0,4.8-4,8-8,8H142.4c-4.8,0-8-3.2-8-8l0,0c0-4.8,4-8,8-8H264 C268.8,128.8,272.8,132,272.8,136.8L272.8,136.8z"/> <path style="fill:#A8A8A8;" d="M361.6,200.8c0,4.8-4,8-8,8H142.4c-4.8,0-8-3.2-8-8l0,0c0-4.8,4-8,8-8h210.4 C357.6,192.8,361.6,196,361.6,200.8L361.6,200.8z"/> <path style="fill:#A8A8A8;" d="M361.6,272.8c0,4.8-4,8-8,8H142.4c-4.8,0-8-3.2-8-8l0,0c0-4.8,4-8,8-8h210.4 C357.6,264.8,361.6,268,361.6,272.8L361.6,272.8z"/> </g> <polygon style="fill:#25764F;" points="496,168.8 496,168.8 248,327.2 0,168.8 0,168.8 0,168.8 0,488.8 496,488.8 "/> <polygon style="fill:#2E8B57;" points="248,328.8 248,326.4 248,326.4 0,168.8 0,168.8 0,168.8 0,488.8 1.6,488.8 0,488.8 "/> <polygon style="fill:#1F6D42;" points="496,488.8 248,328.8 0,488.8 1.6,488.8 494.4,488.8 "/> </g>
</svg>