<!DOCTYPE svg PUBLIC "-//W3C//DTD SVG 1.1//EN" "http://www.w3.org/Graphics/SVG/1.1/DTD/svg11.dtd">
<!-- Uploaded to: SVG Repo, www.svgrepo.com, Transformed by: SVG Repo Mixer Tools -->
<svg height="800px" width="800px" version="1.1" id="Layer_1" xmlns="http://www.w3.org/2000/svg" xmlns:xlink="http://www.w3.org/1999/xlink" viewBox="0 0 507.2 507.2" xml:space="preserve" fill="#000000">
<g id="SVGRepo_bgCarrier" stroke-width="0"/>
<g id="SVGRepo_tracerCarrier" stroke-linecap="round" stroke-linejoin="round"/>
<g id="SVGRepo_iconCarrier"> <circle style="fill:#2E8B57;" cx="253.6" cy="253.6" r="253.6"/> <path style="fill:#1F6D42;" d="M188.8,368l130.4,130.4c108-28.8,188-127.2,188-244.8c0-2.4,0-4.8,0-7.2L404.8,152L188.8,368z"/> <g> <path style="fill:#FFFFFF;" d="M260,310.4c11.2,11.2,11.2,30.4,0,41.6l-23.2,23.2c-11.2,11.2-30.4,11.2-41.6,0L93.6,272.8 c-11.2-11.2-11.2-30.4,0-41.6l23.2-23.2c11.2-11.2,30.4-11.2,41.6,0L260,310.4z"/> <path style="fill:#FFFFFF;" d="M348.8,133.6c11.2-11.2,30.4-11.2,41.6,0l23.2,23.2c11.2,11.2,11.2,30.4,0,41.6l-176,175.2 c-11.2,11.2-30.4,11.2-41.6,0l-23.2-23.2c-11.2-11.2-11.2-30.4,0-41.6L348.8,133.6z"/> </g> </g>
</svg>