<!DOCTYPE svg PUBLIC "-//W3C//DTD SVG 1.1//EN" "http://www.w3.org/Graphics/SVG/1.1/DTD/svg11.dtd">
<!-- Uploaded to: SVG Repo, www.svgrepo.com, Transformed by: SVG Repo Mixer Tools -->
<svg height="800px" width="800px" version="1.1" id="Layer_1" xmlns="http://www.w3.org/2000/svg" xmlns:xlink="http://www.w3.org/1999/xlink" viewBox="0 0 507.2 507.2" xml:space="preserve" fill="#000000">
<g id="SVGRepo_bgCarrier" stroke-width="0"/>
<g id="SVGRepo_tracerCarrier" stroke-linecap="round" stroke-linejoin="round"/>
<g id="SVGRepo_iconCarrier"> <circle style="fill:#cf3830;" cx="253.6" cy="253.6" r="253.6"/> <path style="fill:#9b0808;" d="M147.2,368L284,504.8c115.2-13.6,206.4-104,220.8-219.2L367.2,148L147.2,368z"/> <path style="fill:#FFFFFF;" d="M373.6,309.6c11.2,11.2,11.2,30.4,0,41.6l-22.4,22.4c-11.2,11.2-30.4,11.2-41.6,0l-176-176 c-11.2-11.2-11.2-30.4,0-41.6l23.2-23.2c11.2-11.2,30.4-11.2,41.6,0L373.6,309.6z"/> <path style="fill:#D6D6D6;" d="M280.8,216L216,280.8l93.6,92.8c11.2,11.2,30.4,11.2,41.6,0l23.2-23.2c11.2-11.2,11.2-30.4,0-41.6 L280.8,216z"/> <path style="fill:#FFFFFF;" d="M309.6,133.6c11.2-11.2,30.4-11.2,41.6,0l23.2,23.2c11.2,11.2,11.2,30.4,0,41.6L197.6,373.6 c-11.2,11.2-30.4,11.2-41.6,0l-22.4-22.4c-11.2-11.2-11.2-30.4,0-41.6L309.6,133.6z"/> </g>
</svg>